<?xml version="1.0" encoding="utf-8"?>
<svg
	version="1.1"
	xmlns="http://www.w3.org/2000/svg"
	xmlns:xlink="http://www.w3.org/1999/xlink"
	x="0px" y="0px"
	width="720.0px" height="720.0px"
	viewBox="0 0 720.0 720.0"
	enable-background="new 0 0 720.0 720.0"
	xml:space="preserve">
<defs>
	<radialGradient id="fillGrad0" cx="51.616%" cy="51.788%" fx="51.616%" fy="51.788%" r="49.160%">
   		<stop offset="0.000%" style="stop-color:rgb(76,180,255);stop-opacity:1.000" />
		<stop offset="100.000%" style="stop-color:rgb(0,104,251);stop-opacity:1.000" />
	</radialGradient>

</defs>
	<path
		transform = "rotate(-24.13 360.00 359.89)"
		fill="url(#fillGrad0)"
		stroke="#000000"
		fill-opacity="1.0"
		stroke-opacity="0.000"
		fill-rule="nonzero"
		stroke-width="0.0"
		stroke-linejoin="miter"
		stroke-linecap="square"
		d="M360.00,-0.11C558.82,-0.11,720.00,161.07,720.00,359.89C720.00,558.71,558.82,719.89,360.00,719.89C161.18,719.89,-0.00,558.71,-0.00,359.89C-0.00,161.07,161.18,-0.11,360.00,-0.11z"/>
	<path
		fill="#000000"
		stroke="#000000"
		fill-opacity="0.125"
		stroke-opacity="0.000"
		fill-rule="nonzero"
		stroke-width="0.0"
		stroke-linejoin="miter"
		stroke-linecap="square"
		d="M641.25,584.89C461.25,742.39,270.00,753.64,78.75,584.89A358.78 357.16 172.00 0 0 641.25,584.89z"/>
	<path
		fill="#F4F4F4"
		stroke="#000000"
		fill-opacity="0.153"
		stroke-opacity="0.000"
		fill-rule="nonzero"
		stroke-width="0.0"
		stroke-linejoin="miter"
		stroke-linecap="square"
		d="M641.25,135.11C461.25,-22.39,270.00,-33.64,78.75,135.11A358.78 357.16 188.00 0 1 641.25,135.11z"/>
	<path
		fill="#050005"
		stroke="#000000"
		fill-opacity="0.522"
		stroke-opacity="0.000"
		fill-rule="nonzero"
		stroke-width="0.0"
		stroke-linejoin="miter"
		stroke-linecap="square"
		d="M374.49,192.85Q280.63,148.18,119.86,152.33L48.82,153.07A6.72 13.92 270.07 0 0 48.97,163.70L132.56,169.73Q260.90,180.95,324.64,204.35Q119.86,211.64,8.46,239.77C5.00,240.62,-0.65,255.04,23.99,250.65Q200.04,227.41,318.09,231.52Q163.32,264.02,65.56,330.01C56.05,338.84,63.47,349.33,79.95,338.84Q238.17,258.39,361.96,255.07L375.40,284.82C293.01,334.00,319.99,467.66,434.80,467.66C573.94,464.52,615.75,566.60,629.96,642.56C632.78,654.96,650.34,650.75,643.29,628.14Q635.99,546.23,569.64,485.29Q639.66,510.86,659.96,572.52C666.73,579.87,673.96,573.99,672.57,568.59C659.96,517.11,632.78,478.55,562.40,455.89C532.05,442.87,485.15,437.64,423.68,433.68C333.09,430.79,335.62,288.55,444.51,303.78C460.04,301.73,519.39,328.69,540.20,339.79C543.45,361.20,544.23,357.37,573.24,370.41Q590.03,381.37,597.86,392.70Q607.95,379.20,624.92,374.89C605.96,371.49,581.74,353.35,595.44,351.83C589.60,349.83,584.33,334.64,577.46,322.69C575.30,316.30,560.64,318.67,548.81,316.27C512.93,295.72,462.46,269.33,422.18,268.83C357.17,261.34,380.53,205.85,374.49,192.85z"/>
	<path
		fill="#050005"
		stroke="#000000"
		fill-opacity="0.522"
		stroke-opacity="0.000"
		fill-rule="nonzero"
		stroke-width="0.0"
		stroke-linejoin="miter"
		stroke-linecap="square"
		d="M546.29,310.57L572.12,314.40C572.78,304.49,511.54,256.32,457.80,239.98C442.80,232.35,433.23,245.69,451.88,252.21C493.43,269.68,534.21,295.64,546.29,310.57z"/>
	<path
		fill="#FFFFFF"
		stroke="#000000"
		fill-opacity="1.000"
		stroke-opacity="0.000"
		fill-rule="nonzero"
		stroke-width="0.0"
		stroke-linejoin="miter"
		stroke-linecap="square"
		d="M374.60,177.54Q280.74,132.87,119.97,137.02L48.92,137.76A6.72 13.92 270.07 0 0 49.08,148.39L132.67,154.42Q261.01,165.64,324.74,189.04Q119.97,196.33,8.56,224.46C5.11,225.31,-0.55,239.73,24.09,235.34Q200.15,212.10,318.19,216.21Q163.43,248.71,65.67,314.70C56.16,323.53,63.57,334.02,80.06,323.53Q238.28,243.08,362.06,239.76L375.51,269.51C293.12,318.69,320.09,452.35,434.90,452.35C574.05,449.21,615.85,551.29,630.07,627.25C632.88,639.65,650.44,635.44,643.40,612.83Q636.10,530.92,569.75,469.97Q639.77,495.55,660.07,557.21C666.84,564.56,674.07,558.68,672.68,553.28C660.07,501.80,632.88,463.24,562.51,440.58C532.15,427.56,485.26,422.33,423.79,418.37C333.20,415.48,335.73,273.24,444.62,288.47C460.15,286.42,519.50,313.38,540.31,324.48C543.56,345.89,544.33,342.06,573.35,355.10Q590.14,366.06,597.97,377.39Q608.06,363.89,625.03,359.58C606.07,356.18,581.85,338.04,595.54,336.52C589.70,334.52,584.43,319.33,577.56,307.38C575.41,300.99,560.75,303.36,548.91,300.96C513.04,280.41,462.57,254.02,422.29,253.52C357.28,246.03,380.63,190.54,374.60,177.54z"/>
	<path
		fill="#FFFFFF"
		stroke="#000000"
		fill-opacity="1.000"
		stroke-opacity="0.000"
		fill-rule="nonzero"
		stroke-width="0.0"
		stroke-linejoin="miter"
		stroke-linecap="square"
		d="M546.39,295.26L572.23,299.09C572.88,289.18,511.65,241.01,457.90,224.67C442.91,217.04,433.34,230.38,451.98,236.90C493.53,254.37,534.31,280.33,546.39,295.26z"/>
</svg>